<?xml version="1.0" encoding="iso-8859-1"?>
<!-- Uploaded to: SVG Repo, www.svgrepo.com, Generator: SVG Repo Mixer Tools -->
<svg version="1.1" id="Layer_1" xmlns="http://www.w3.org/2000/svg" xmlns:xlink="http://www.w3.org/1999/xlink" 
	 viewBox="0 0 512 512" xml:space="preserve">
<polygon style="fill:#6F6F6F;" points="512,151.978 256,1.618 235.101,279.411 256,489.483 441.928,510.382 512,510.382 "/>
<g>
	<polygon style="fill:#9D9D9D;" points="0,151.978 0,510.382 70.072,510.382 256,489.483 256,1.618 	"/>
	<polygon style="fill:#9D9D9D;" points="441.928,187.036 256,187.036 235.101,350.907 256,510.382 441.928,510.382 	"/>
</g>
<rect x="70.071" y="187.037" style="fill:#D4D4D4;" width="185.929" height="323.344"/>
<polygon style="fill:#FFC222;" points="347.613,510.382 393.42,510.382 393.42,418.77 326.715,397.87 "/>
<polygon style="fill:#FEDF77;" points="280.907,397.87 301.806,510.382 347.613,510.382 347.613,418.77 "/>
<polygon style="fill:#FFC222;" points="235.101,397.87 256,510.382 301.806,510.382 301.806,418.77 "/>
<polygon style="fill:#FEDF77;" points="189.294,397.87 210.194,510.382 256,510.382 256,418.77 "/>
<polygon style="fill:#FFC222;" points="143.487,397.87 164.386,510.382 210.194,510.382 210.194,418.77 "/>
<polygon style="fill:#FEDF77;" points="118.58,418.77 118.58,510.382 164.386,510.382 164.386,397.87 "/>
<polygon style="fill:#FF9500;" points="347.613,418.77 393.42,418.77 393.42,327.156 326.715,306.257 "/>
<polygon style="fill:#FFC222;" points="301.806,418.77 347.613,418.77 347.613,327.156 280.907,306.257 "/>
<polygon style="fill:#FF9500;" points="235.101,306.257 256,418.77 301.806,418.77 301.806,327.156 "/>
<polygon style="fill:#FFC222;" points="189.294,306.257 210.194,418.77 256,418.77 256,327.156 "/>
<polygon style="fill:#FF9500;" points="143.487,306.257 164.386,418.77 210.194,418.77 210.194,327.156 "/>
<g>
	<polygon style="fill:#FFC222;" points="164.386,306.257 118.58,327.156 118.58,418.77 164.386,418.77 	"/>
	<polygon style="fill:#FFC222;" points="347.613,235.543 326.715,281.349 347.613,327.156 393.42,327.156 393.42,235.543 	"/>
</g>
<polygon style="fill:#FEDF77;" points="347.613,327.156 347.613,235.543 301.806,235.543 280.907,281.349 301.806,327.156 "/>
<polygon style="fill:#FFC222;" points="301.806,327.156 301.806,235.543 256,235.543 235.101,279.513 256,327.156 "/>
<polygon style="fill:#FEDF77;" points="256,327.156 256,235.543 210.194,235.543 189.294,281.349 210.194,327.156 "/>
<polygon style="fill:#FFC222;" points="210.194,327.156 210.194,235.543 164.386,235.543 143.487,281.349 164.386,327.156 "/>
<rect x="118.575" y="235.541" style="fill:#FEDF77;" width="45.806" height="91.617"/>
</svg>